<?xml version="1.0" encoding="UTF-8" standalone="no"?>
<!--
  Licensed to the Apache Software Foundation (ASF) under one or more
  contributor license agreements.  See the NOTICE file distributed with
  this work for additional information regarding copyright ownership.
  The ASF licenses this file to You under the Apache License, Version 2.0
  (the "License"); you may not use this file except in compliance with
  the License.  You may obtain a copy of the License at

       http://www.apache.org/licenses/LICENSE-2.0

  Unless required by applicable law or agreed to in writing, software
  distributed under the License is distributed on an "AS IS" BASIS,
  WITHOUT WARRANTIES OR CONDITIONS OF ANY KIND, either express or implied.
  See the License for the specific language governing permissions and
  limitations under the License.
-->
<!-- $Id$ -->
<svg xmlns:svg="http://www.w3.org/2000/svg" xmlns="http://www.w3.org/2000/svg" xmlns:xlink="http://www.w3.org/1999/xlink" xml:space="preserve" x="-5.69592in" y="-1.44975in" width="5.5257in" height="2.53948in" style="shape-rendering:geometricPrecision; text-rendering:geometricPrecision; image-rendering:optimizeQuality" viewBox="-56959 0 55257 25395" id="svg2853">
  <defs id="defs2929">
      <linearGradient id="id0" x1="-31008.836" y1="-0.4740662" x2="-31008.836" y2="12075.889" gradientTransform="scale(0.948133,1.054705)" gradientUnits="userSpaceOnUse">
        <stop offset="0" style="stop-color:#FFCC00" id="stop2862"/>
        <stop offset="1" style="stop-color:#FFFFFF" id="stop2864"/>
      </linearGradient>
  </defs>
  <g id="g3018">
    <image xlink:href="fop-logo-reconstructed.svg" height="5088.0142" width="9907.0371" y="15876.539" x="-28543.301" id="18424888"/>
    <rect height="12598" width="11311" y="69" x="-29331" style="fill:url(#id0);stroke:black;stroke-width:139" id="18424976"/>
    <rect height="5512" width="7874" y="916" x="-56890" style="fill:#ffc;stroke:black;stroke-width:139" id="18425064"/>
    <text id="text2869" style="font-size:1667px;font-weight:normal;fill:black;font-family:Verdana" y="3322" x="-54924">Data </text>
    <text id="text2871" style="font-size:1667px;font-weight:normal;fill:black;font-family:Verdana" y="5347" x="-55842">Source</text>
    <rect height="5512" width="7874" y="916" x="-45079" style="fill:#ffc;stroke:black;stroke-width:139" id="18425240"/>
    <text id="text2874" style="font-size:1667px;font-weight:normal;fill:black;font-family:Verdana" y="4334" x="-42879">XML</text>
    <rect height="5512" width="7874" y="916" x="-33268" style="fill:#ffc;stroke:black;stroke-width:139" id="18425416"/>
    <text id="text2877" style="font-size:1667px;font-weight:normal;fill:black;font-family:Verdana" y="4334" x="-32383">XSL-FO</text>
    <rect height="5512" width="7874" y="916" x="-21457" style="fill:#ffc;stroke:black;stroke-width:139" id="18425592"/>
    <text id="text2880" style="font-size:1667px;font-weight:normal;fill:black;font-family:Verdana" y="3322" x="-20136">Target </text>
    <text id="text2882" style="font-size:1667px;font-weight:normal;fill:black;font-family:Verdana" y="5347" x="-18952">File</text>
    <rect height="5512" width="7874" y="916" x="-9646" style="fill:#ffc;stroke:black;stroke-width:139" id="18425768"/>
    <text id="text2885" style="font-size:1667px;font-weight:normal;fill:black;font-family:Verdana" y="4334" x="-8063">Paper</text>
    <g id="g2887">
      <path d="M -42786,7215 L -42808,7333 L -42877,7448 L -42993,7562 L -43157,7671 L -43364,7774 L -43611,7869 L -43893,7956 L -44208,8033 L -44551,8102 L -44918,8161 L -45306,8212 L -45712,8253 L -46132,8285 L -46562,8308 L -47000,8322 L -47441,8326 L -47882,8322 L -48319,8308 L -48750,8285 L -49170,8253 L -49576,8212 L -49964,8161 L -50331,8102 L -50674,8033 L -50989,7956 L -51271,7869 L -51518,7774 L -51725,7671 L -51889,7562 L -52005,7448 L -52073,7333 L -52096,7215 L -52235,7215 L -52203,7383 L -52113,7535 L -51975,7670 L -51794,7792 L -51573,7901 L -51316,8000 L -51025,8089 L -50704,8168 L -50356,8238 L -49984,8298 L -49591,8349 L -49182,8391 L -48758,8424 L -48325,8447 L -47885,8461 L -47441,8465 L -46997,8461 L -46557,8447 L -46123,8424 L -45700,8391 L -45291,8349 L -44898,8298 L -44526,8238 L -44178,8168 L -43857,8089 L -43566,8000 L -43309,7901 L -43088,7792 L -42907,7670 L -42769,7535 L -42679,7383 L -42647,7215 L -42786,7215 z " style="fill:black" id="18425944"/>
      <path d="M -43082,7273 L -42717,6607 L -42351,7273 L -43082,7273 L -42717,6607 L -43082,7273 z " style="fill:black" id="path2890"/>
    </g>
    <g id="g2892">
      <path d="M -30188,7215 L -30210,7333 L -30278,7448 L -30395,7562 L -30559,7671 L -30766,7774 L -31012,7869 L -31295,7956 L -31609,8033 L -31952,8102 L -32319,8161 L -32708,8212 L -33114,8253 L -33534,8285 L -33964,8308 L -34402,8322 L -34843,8326 L -35284,8322 L -35721,8308 L -36151,8285 L -36571,8253 L -36977,8212 L -37366,8161 L -37733,8102 L -38076,8033 L -38390,7956 L -38673,7869 L -38919,7774 L -39126,7671 L -39290,7562 L -39407,7448 L -39475,7333 L -39497,7215 L -39636,7215 L -39605,7383 L -39515,7535 L -39376,7670 L -39195,7792 L -38975,7901 L -38717,8000 L -38426,8089 L -38105,8168 L -37757,8238 L -37385,8298 L -36993,8349 L -36583,8391 L -36160,8424 L -35726,8447 L -35286,8461 L -34843,8465 L -34399,8461 L -33959,8447 L -33525,8424 L -33102,8391 L -32692,8349 L -32300,8298 L -31928,8238 L -31580,8168 L -31259,8089 L -30968,8000 L -30710,7901 L -30490,7792 L -30309,7670 L -30170,7535 L -30080,7383 L -30049,7215 L -30188,7215 z " style="fill:black" id="18426032"/>
      <path d="M -30484,7273 L -30118,6607 L -29752,7273 L -30484,7273 L -30118,6607 L -30484,7273 z " style="fill:black" id="path2895"/>
    </g>
    <g id="g2897">
      <path d="M -34912,13514 L -34924,13655 L -34962,13806 L -35023,13967 L -35106,14136 L -35211,14312 L -35335,14494 L -35476,14681 L -35633,14872 L -35804,15065 L -35988,15260 L -36182,15455 L -36385,15650 L -36595,15845 L -36810,16038 L -37029,16227 L -37249,16414 L -37470,16595 L -37688,16771 L -37904,16941 L -38114,17104 L -38318,17258 L -38512,17404 L -38697,17540 L -38869,17666 L -39028,17779 L -39171,17881 L -39297,17969 L -39403,18043 L -39489,18102 L -39553,18145 L -39592,18172 L -39605,18181 L -39528,18296 L -39515,18287 L -39475,18260 L -39411,18217 L -39325,18157 L -39217,18082 L -39091,17994 L -38947,17892 L -38788,17778 L -38615,17652 L -38430,17516 L -38234,17369 L -38030,17214 L -37819,17050 L -37602,16880 L -37382,16703 L -37161,16520 L -36939,16333 L -36718,16142 L -36501,15948 L -36290,15751 L -36085,15554 L -35888,15356 L -35702,15158 L -35528,14962 L -35368,14767 L -35222,14575 L -35094,14387 L -34985,14202 L -34896,14022 L -34829,13847 L -34788,13678 L -34773,13514 L -34912,13514 z " style="fill:black" id="18615216"/>
      <path d="M -35208,13572 L -34843,12906 L -34477,13572 L -35208,13572 L -34843,12906 L -35208,13572 z " style="fill:black" id="path2900"/>
    </g>
    <g id="g2902">
      <path d="M -19164,7215 L -19186,7333 L -19255,7448 L -19371,7562 L -19535,7671 L -19742,7774 L -19989,7869 L -20271,7956 L -20586,8033 L -20929,8102 L -21296,8161 L -21684,8212 L -22090,8253 L -22510,8285 L -22940,8308 L -23378,8322 L -23819,8326 L -24260,8322 L -24697,8308 L -25128,8285 L -25548,8253 L -25954,8212 L -26342,8161 L -26709,8102 L -27052,8033 L -27366,7956 L -27649,7869 L -27896,7774 L -28103,7671 L -28267,7562 L -28383,7448 L -28451,7333 L -28474,7215 L -28613,7215 L -28581,7383 L -28491,7535 L -28353,7670 L -28172,7792 L -27951,7901 L -27694,8000 L -27403,8089 L -27082,8168 L -26734,8238 L -26362,8298 L -25969,8349 L -25560,8391 L -25136,8424 L -24703,8447 L -24263,8461 L -23819,8465 L -23375,8461 L -22935,8447 L -22501,8424 L -22078,8391 L -21669,8349 L -21276,8298 L -20904,8238 L -20556,8168 L -20235,8089 L -19944,8000 L -19687,7901 L -19466,7792 L -19285,7670 L -19147,7535 L -19057,7383 L -19025,7215 L -19164,7215 z " style="fill:black" id="18426120"/>
      <path d="M -19460,7273 L -19094,6607 L -18729,7273 L -19460,7273 L -19094,6607 L -19460,7273 z " style="fill:black" id="path2905"/>
    </g>
    <g id="g2907">
      <path d="M -6566,7215 L -6588,7333 L -6656,7448 L -6773,7562 L -6937,7671 L -7144,7774 L -7390,7869 L -7673,7956 L -7987,8033 L -8330,8102 L -8697,8161 L -9086,8212 L -9492,8253 L -9912,8285 L -10342,8308 L -10779,8322 L -11220,8326 L -11661,8322 L -12099,8308 L -12529,8285 L -12949,8253 L -13355,8212 L -13744,8161 L -14111,8102 L -14454,8033 L -14768,7956 L -15051,7869 L -15297,7774 L -15504,7671 L -15668,7562 L -15785,7448 L -15853,7333 L -15875,7215 L -16014,7215 L -15983,7383 L -15893,7535 L -15754,7670 L -15573,7792 L -15353,7901 L -15095,8000 L -14804,8089 L -14483,8168 L -14135,8238 L -13763,8298 L -13371,8349 L -12961,8391 L -12538,8424 L -12104,8447 L -11664,8461 L -11220,8465 L -10777,8461 L -10337,8447 L -9903,8424 L -9480,8391 L -9070,8349 L -8678,8298 L -8306,8238 L -7958,8168 L -7636,8089 L -7346,8000 L -7088,7901 L -6868,7792 L -6686,7670 L -6548,7535 L -6458,7383 L -6427,7215 L -6566,7215 z " style="fill:black" id="18426208"/>
      <path d="M -6862,7273 L -6496,6607 L -6130,7273 L -6862,7273 L -6496,6607 L -6862,7273 z " style="fill:black" id="path2910"/>
    </g>
    <text id="text2912" style="font-size:1667px;font-style:italic;font-weight:normal;fill:black;font-family:Verdana" y="10364" x="-52841">Generation</text>
    <text id="text2914" style="font-size:1667px;font-style:italic;font-weight:normal;fill:black;font-family:Verdana" y="10364" x="-42417">Transformation</text>
    <text id="text2916" style="font-size:1667px;font-style:italic;font-weight:normal;fill:black;font-family:Verdana" y="12390" x="-38905">(XSLT)</text>
    <text id="text2918" style="font-size:1667px;font-style:italic;font-weight:normal;fill:black;font-family:Verdana" y="10305" x="-26373">Layout</text>
    <text id="text2920" style="font-size:1667px;font-style:italic;font-weight:normal;fill:black;font-family:Verdana" y="10364" x="-14437">Printing</text>
    <path d="M -25535,14570 L -24751,14570 C -24577,14570 -24430,14591 -24309,14633 C -24189,14674 -24087,14740 -24004,14827 C -23921,14916 -23854,15028 -23803,15164 C -23752,15301 -23710,15480 -23676,15703 C -23639,15482 -23597,15308 -23550,15182 C -23503,15054 -23442,14946 -23367,14857 C -23291,14767 -23188,14698 -23056,14647 C -22925,14596 -22771,14570 -22594,14570 L -21884,14570 L -19262,14570 C -18975,14570 -18769,14543 -18644,14490 C -18519,14435 -18408,14332 -18312,14179 C -18216,14026 -18147,13824 -18104,13571 L -18020,13571 C -18060,14002 -18163,14317 -18328,14517 C -18494,14718 -18743,14816 -19074,14818 L -21884,14824 L -22559,14818 C -22886,14818 -23124,14893 -23273,15046 C -23424,15199 -23534,15456 -23606,15817 L -23745,15817 C -23815,15456 -23925,15199 -24075,15046 C -24225,14893 -24464,14818 -24790,14818 L -25520,14818 L -28277,14818 C -28609,14818 -28858,14717 -29023,14517 C -29188,14317 -29291,14002 -29331,13571 L -29247,13571 C -29217,13758 -29170,13918 -29107,14053 C -29045,14187 -28969,14294 -28882,14373 C -28794,14452 -28685,14505 -28556,14531 C -28426,14557 -28270,14570 -28089,14570 L -25535,14570 z " style="fill:black" id="18426648"/>
    <path d="M -44291,18238 L -34941,18238 L -34941,24128 C -38334,24248 -40831,26009 -44291,25030 L -44291,18238 z " style="fill:#ffc;stroke:black;stroke-width:139;stroke-linecap:round;stroke-linejoin:round" id="18618472"/>
    <text id="text2924" style="font-size:1389px;font-weight:normal;fill:black;font-family:Verdana" y="21490" x="-41323">XSLT </text>
    <text id="text2926" style="font-size:1389px;font-weight:normal;fill:black;font-family:Verdana" y="23178" x="-43278">Stylesheet</text>
  </g>
</svg>
