<?xml version="1.0" encoding="iso-8859-1"?>
<!DOCTYPE svg PUBLIC "-//W3C//DTD SVG 20000303 Stylable//EN" "http://www.w3.org/TR/2000/03/WD-SVG-20000303/DTD/svg-20000303-stylable.dtd">
<svg xml:space="preserve" x="-3.11174in" y="-3.04968in" width="2.71954in" height="0.317961in" style="shape-rendering:geometricPrecision; text-rendering:geometricPrecision; image-rendering:optimizeQuality" viewBox="-7904 0 6908 808">
  <g id="Ebene 1">
    <g>
      <rect id="46469856" style="fill:none;stroke:#1F1A17;stroke-width:8" x="-7900" y="4" width="1380" height="800"/>
      <text x="-7638" y="556" style="fill:#1F1A17;font-weight:normal;font-size:423;font-family:Helvetica,Arial,sans-serif">XML</text>
    </g>
    <g>
      <path id="46469416" style="fill:none;stroke:#1F1A17;stroke-width:8" d="M-6520 404l1120 0m-560 0"/>
      <path id="46469416" style="fill:#1F1A17" d="M-5569 311l169 93 -169 93 0 -186 169 93z"/>
    </g>
    <text x="-6345" y="304" style="fill:#1F1A17;font-weight:normal;font-size:284;font-family:Helvetica,Arial,sans-serif">XSLT</text>
    <text x="-6355" y="704" style="fill:#1F1A17;font-weight:normal;font-size:284;font-family:Helvetica,Arial,sans-serif">JAXP</text>
    <g>
      <path id="46469504" style="fill:none;stroke:#1F1A17;stroke-width:8" d="M-3500 404l0 0 0 0 0 0m0 0m0 0m0 0"/>
      <rect id="46469592" style="fill:none;stroke:#1F1A17;stroke-width:8" x="-5400" y="4" width="1900" height="800"/>
      <text x="-5205" y="556" style="fill:#1F1A17;font-weight:normal;font-size:423;font-family:Helvetica,Arial,sans-serif">XSL-FO</text>
    </g>
    <g>
      <path id="46470648" style="fill:none;stroke:#1F1A17;stroke-width:8" d="M-3500 404l1100 0m-550 0"/>
      <path id="46470648" style="fill:#1F1A17" d="M-2569 311l169 93 -169 93 0 -186 169 93z"/>
    </g>
    <text x="-3292" y="304" style="fill:#1F1A17;font-weight:normal;font-size:284;font-family:Helvetica,Arial,sans-serif">FOP</text>
    <g>
      <text x="-2114" y="556" style="fill:#1F1A17;font-weight:normal;font-size:423;font-family:Helvetica,Arial,sans-serif">PDF</text>
      <rect id="46468800" style="fill:none;stroke:#1F1A17;stroke-width:8" x="-2400" y="4" width="1400" height="800"/>
    </g>
  </g>
</svg>
